# xmcd
#
# Track frame offsets: 
#        150
#        41859
#        58778
#        87419
#        105950
#        130010
#        152922
#        175025
#        203887
#        235672
#
# Disc length: 3429 seconds
#
# Revision: 0
# Processed by: cddbd v1.5.2PL0 Copyright (c) Steve Scherf et al.
# Submitted via: ExactAudioCopy v0.99pb5
#
DISCID=7d0d630a
DTITLE=The C. D. Woodbury Band - Sunbanks Live!
DYEAR=2011
DGENRE=Blues
TTITLE0=Further On Up The Road
TTITLE1=Pick It Up
TTITLE2=Prison Of Love
TTITLE3=Frenzy!
TTITLE4=Two Wheels
TTITLE5=Early To Bed
TTITLE6=Can I Change My Mind
TTITLE7=Built For Comfort
TTITLE8=Yellow Moon
TTITLE9=I Wish You Could See Me Now
EXTD=
EXTT0=
EXTT1=
EXTT2=
EXTT3=
EXTT4=
EXTT5=
EXTT6=
EXTT7=
EXTT8=
EXTT9=
PLAYORDER=
